<?xml version="1.0" encoding="UTF-8"?>
<svg width="186px" height="152px" viewBox="0 0 186 152" version="1.1" xmlns="http://www.w3.org/2000/svg" xmlns:xlink="http://www.w3.org/1999/xlink">
    <title>arrows</title>
    <defs>
        <path d="M190.973118,158.928705 L205.873413,136.166041 C207.928626,132.929644 207.209301,129.477486 203.407157,129.477486 L192.617288,129.477486 C188.095819,100.457786 166.105039,80.5 138.154141,80.5 C125.309059,80.5 112.258456,85.6782364 103.318279,94.2007505 C99.5161346,97.4371482 98.6940493,101.644465 101.468587,104.665103 C104.243125,107.577861 107.634226,107.146341 110.717046,104.557223 C119.348941,96.7898687 127.878075,93.3377111 138.154141,93.3377111 C159.528357,93.3377111 176.997669,108.87242 181.005334,129.477486 L169.39338,129.477486 C165.693997,129.477486 164.66639,133.145403 166.824364,136.166041 L181.93018,158.928705 C184.396436,162.704503 188.404101,162.920263 190.973118,158.928705 Z M138.256902,195.5 C151.101984,195.5 164.049826,190.321764 173.195524,181.79925 C176.894908,178.562852 177.716993,174.355535 174.942456,171.334897 C172.270679,168.422139 168.776816,168.853659 165.591236,171.442777 C156.959341,179.102251 148.532967,182.662289 138.256902,182.662289 C116.882685,182.662289 99.4133739,167.12758 95.4057084,146.522514 L106.60662,146.522514 C110.408764,146.522514 111.33361,142.854597 109.278397,139.833959 L94.1725805,117.071295 C91.6035641,113.295497 87.5958985,113.079737 85.0268822,117.071295 L70.1265871,139.833959 C68.071374,143.070356 68.7906986,146.522514 72.5928429,146.522514 L83.7937543,146.522514 C88.3152231,175.542214 110.408764,195.5 138.256902,195.5 Z" id="path-1"></path>
    </defs>
    <g id="arrows" stroke="none" stroke-width="1" fill="none" fill-rule="evenodd">
        <g id="icon" transform="translate(-45.000000, -62.000000)">
            <rect id="Size" x="0" y="0" width="276" height="276"></rect>
            <mask id="mask-2" fill="white">
                <use xlink:href="#path-1"></use>
            </mask>
            <use id="switch" fill="#898989" fill-rule="nonzero" transform="translate(138.000000, 138.000000) rotate(-270.000000) translate(-138.000000, -138.000000) " xlink:href="#path-1"></use>
            <g id="Group" mask="url(#mask-2)" fill="#647684">
                <g id="color">
                    <rect id="Rectangle" x="0" y="0" width="276" height="276"></rect>
                </g>
            </g>
        </g>
    </g>
</svg>