<?xml version="1.0" encoding="UTF-8"?>
<svg width="26px" height="29px" viewBox="0 0 26 29" version="1.1" xmlns="http://www.w3.org/2000/svg" xmlns:xlink="http://www.w3.org/1999/xlink">
    <title>logo</title>
    <g id="logo" stroke="none" stroke-width="1" fill="none" fill-rule="evenodd">
        <path d="M13,3 C19.627417,3 25,8.372583 25,15 C25,21.627417 19.627417,27 13,27 C6.372583,27 1,21.627417 1,15 L1,14.8026316 C1,20.9722336 6.00145062,25.9736842 12.1710526,25.9736842 C18.3406547,25.9736842 23.3421053,20.9722336 23.3421053,14.8026316 C23.3421053,8.63302958 18.3406547,3.63157895 12.1710526,3.63157895 C7.84247305,3.63157895 4.08890378,6.09349081 2.23419094,9.69346844 C4.19258247,5.72767414 8.27775002,3 13,3 Z M12.1101119,4 C15.7249823,4 18.8967459,5.97032846 20.6840427,8.93332258 L20.839,9.2 L20.6839183,8.96129434 C19.0602884,6.54785824 16.365427,4.96923077 13.3155483,4.96923077 C8.3546806,4.96923077 4.33310274,9.14589746 4.33310274,14.2980769 C4.33310274,19.4502564 8.3546806,23.6269231 13.3155483,23.6269231 C17.480269,23.6269231 20.9829925,20.6832723 22,16.6900199 C21.0300603,21.4377871 16.9706388,25 12.1101119,25 C6.52645127,25 2,20.2989899 2,14.5 C2,8.70101013 6.52645127,4 12.1101119,4 Z M16.2071454,9 L16.5188481,9.84285125 L16.4612525,9.86433261 C16.4281822,9.87666681 16.3957803,9.88918285 16.3640399,9.90188947 L16.3014394,9.92755937 C15.4784746,10.2732815 15.1227803,10.7586509 15.105851,11.5489941 L15.1051954,12.1993508 L15.1358467,12.2029314 C16.0705058,12.3139928 16.9246575,12.5081768 17.6565713,12.7750267 L17.7248288,12.8002565 L17.7903866,12.8251495 C17.8188658,12.8359459 17.8470898,12.8468318 17.8750572,12.8578064 L17.9581889,12.890995 C18.0130953,12.9132967 18.0669712,12.9359491 18.1198067,12.9589448 L18.1982789,12.993695 C18.2371237,13.0111979 18.2753808,13.0288918 18.3130461,13.0467735 L18.3875867,13.0827866 C19.4323679,13.5964943 20,14.2593387 20,14.9998803 C20,15.7839831 19.3636235,16.4809791 18.1981865,17.0061004 L18.1197081,17.040853 C18.0140283,17.0868477 17.9041871,17.1314695 17.7902599,17.1746589 C17.0378807,17.4579867 16.1690124,17.6652735 15.2281307,17.7852098 L15.1397134,17.7961975 L15.1051954,17.8002227 L15.1052124,18.3904478 C15.1052124,19.6196155 14.5037447,20.456391 13.2777233,20.9361089 L13.2403799,20.9505365 L13.2022711,20.9648882 L13.1065965,21 L12.7948053,20.1569093 L12.8524009,20.1354279 C13.7893937,19.785959 14.189815,19.290506 14.2078024,18.4507664 L14.2082787,18.4209852 L14.2084401,17.8779553 L14.1340595,17.8835139 C13.8526494,17.9031907 13.5712372,17.9154888 13.2898239,17.920408 L13.1491172,17.9222527 L13.0084103,17.9228676 C12.658762,17.9228676 12.301951,17.9114914 11.9646766,17.8894266 L11.853012,17.8816768 L11.8083158,17.878176 L11.8083796,18.3904478 C11.8083796,19.6143848 11.1964656,20.4541817 9.96443297,20.935984 L9.92690883,20.9504746 L9.8886202,20.9648891 L9.7929422,21 L9.48115187,20.1569093 L9.53874745,20.1354279 C10.4757403,19.785959 10.8761616,19.290506 10.894149,18.4507664 L10.894765,17.8003697 L10.8641533,17.7968292 C9.92949415,17.6857677 9.07534248,17.4915838 8.34342867,17.2247338 L8.27517114,17.1995041 L8.16738731,17.1584604 L8.08405153,17.1257272 L8.00221136,17.0924242 C6.71829391,16.5606571 6,15.8175259 6,14.9998803 C6,14.337157 6.47188528,13.7233861 7.33442011,13.2314153 L7.40241984,13.1933277 C7.52853035,13.1239571 7.66257023,13.0571108 7.80430265,12.9930012 L7.88237271,12.958305 C7.98747953,12.9124087 8.09663235,12.8679804 8.20974008,12.8251016 C8.96211931,12.5417739 9.83098761,12.3344871 10.7718693,12.2145508 L10.8602866,12.203563 L10.894765,12.1994244 L10.8947875,11.6093127 C10.8947875,10.3773763 11.4990497,9.54212319 12.7380368,9.06349765 L12.7757762,9.04910297 L12.8142914,9.03478427 L12.9103128,9 L13.2220153,9.84285125 L13.1644197,9.86433261 C12.2274268,10.2138016 11.8270056,10.7092545 11.8090181,11.5489941 L11.8085418,11.5787753 L11.8083158,12.1217652 L11.8827611,12.1162467 C12.1641711,12.0965699 12.4455833,12.0842718 12.7269966,12.0793526 L12.8677034,12.0775079 L13.0084103,12.0768929 C13.3580586,12.0768929 13.7148695,12.0882692 14.052144,12.1103339 L14.1638085,12.1180838 L14.2084401,12.1215446 L14.208441,11.6093127 C14.208441,10.3678206 14.8219871,9.52666483 16.0727993,9.04940351 L16.1108978,9.03505239 L16.2071454,9 Z M13.1066839,12.9779009 L13.0084103,12.9776008 C12.6519262,12.9776008 12.3067209,12.9886291 11.9729729,13.0106679 L11.8621482,13.018422 L11.8083158,13.0225672 L11.8083158,16.9771534 L11.8439913,16.9799636 C12.1841062,17.0054103 12.5493192,17.0196612 12.9101366,17.0218597 L13.0084103,17.0221598 C13.3648943,17.0221598 13.7100996,17.0111314 14.0438476,16.9890926 L14.1546724,16.9813385 L14.2084401,16.9770798 L14.2084401,13.0225672 L14.1728292,13.019797 C13.8327144,12.9943503 13.4675013,12.9800993 13.1066839,12.9779009 Z M10.894765,13.1018442 L10.8841675,13.103304 C10.0074914,13.2202641 9.20111656,13.4142283 8.53914662,13.6682388 L8.50179107,13.6825777 L8.4282305,13.7115364 C8.37970396,13.7309648 8.33220843,13.7506351 8.28576392,13.7705284 L8.21688791,13.8005334 C8.20554078,13.8055613 8.19425997,13.8106025 8.18304579,13.8156569 L8.11656269,13.8461369 C8.09466983,13.8563476 8.07304596,13.8666081 8.05169361,13.876916 L7.98845356,13.9079799 L7.92685753,13.9393144 C7.82557584,13.9917562 7.73120674,14.0452663 7.64406276,14.0995487 L7.59264589,14.1322084 C7.58422174,14.1376664 7.57587048,14.1431315 7.5675924,14.1486034 L7.51880469,14.1815145 C7.12758506,14.4509201 6.91359203,14.7353158 6.91359203,14.9998803 C6.91359203,15.2428476 7.09407345,15.5025407 7.42650865,15.7519694 L7.47173131,15.7851634 C7.48710401,15.7962062 7.50277437,15.8072264 7.51873987,15.8182215 L7.56751931,15.8511296 C7.57579596,15.8566009 7.58414577,15.8620655 7.59256842,15.8675228 L7.64397601,15.9001791 C7.68753997,15.9273173 7.73290946,15.9542621 7.78004535,15.9809765 L7.83745379,16.0129208 C7.8568709,16.0235305 7.87656812,16.0341009 7.89654295,16.0446298 L7.9572978,16.0760892 L8.01970331,16.1072847 C8.0407786,16.1176377 8.06212648,16.1279443 8.08374447,16.1382022 L8.14940624,16.1688275 C8.16048408,16.1739065 8.17162882,16.1789728 8.18284015,16.184026 L8.25090466,16.2141863 C8.26238108,16.219186 8.27392346,16.2241722 8.28553149,16.2291443 L8.35596493,16.2588075 L8.42795887,16.2881216 C8.44008707,16.2929774 8.45227965,16.297818 8.46453633,16.3026433 L8.53884285,16.331407 C9.20303199,16.5802011 9.96529313,16.7676049 10.7934389,16.8840169 L10.894765,16.8978028 L10.894765,13.1018442 Z M15.1051954,13.1019178 L15.1051954,16.8978028 L15.1158325,16.8964565 C15.9659426,16.7830407 16.7499477,16.5972169 17.4002785,16.3544477 L17.4982089,16.3171829 L17.5717694,16.2882242 L17.6437835,16.2589025 L17.6792059,16.24411 L17.6792059,16.24411 L17.7488721,16.2142706 L17.8169542,16.1841037 C17.8393825,16.1739951 17.8615444,16.1638343 17.8834373,16.1536236 L17.9483064,16.1228445 C18.0870967,16.0558428 18.2144159,15.9868356 18.3295776,15.9164731 L18.3818633,15.8839043 L18.4324076,15.8511572 C18.8545896,15.5720895 19.086408,15.2752433 19.086408,14.9998803 C19.086408,14.7299166 18.8635914,14.4393038 18.4570908,14.1650654 L18.4074315,14.1322377 C18.3905862,14.1213229 18.3734495,14.1104367 18.3560239,14.0995815 L18.3028831,14.0671108 C18.2848822,14.0563198 18.266595,14.0455621 18.2480238,14.0348401 L18.1914614,14.0027834 C18.1531887,13.9814867 18.1137906,13.9603423 18.0732869,13.939369 L18.0117048,13.9080397 C18.0013038,13.9028404 17.9908343,13.8976523 17.9802966,13.8924758 L17.9162555,13.8615583 C17.9054465,13.8564294 17.89457,13.8513126 17.8836262,13.8462083 L17.8171598,13.8157345 C17.8059485,13.8106813 17.7946705,13.8056411 17.7833264,13.8006143 L17.7144685,13.7706162 C17.6332123,13.735811 17.5487394,13.7016896 17.4611571,13.6683536 C16.7743943,13.4111037 15.9829689,13.2195512 15.1222451,13.1041679 L15.1051954,13.1019178 Z" id="Combined-Shape" fill="#000000" fill-rule="nonzero"></path>
    </g>
</svg>