<?xml version="1.0" encoding="UTF-8"?>
<svg width="45px" height="49px" viewBox="0 0 45 49" version="1.1" xmlns="http://www.w3.org/2000/svg" xmlns:xlink="http://www.w3.org/1999/xlink">
    <title>logo2</title>
    <g id="logo2" stroke="none" stroke-width="1" fill="none" fill-rule="evenodd">
        <path d="M39.9070068,18.1763676 C42.4519144,21.2064964 43.8723699,25.0392676 43.8723699,29.0908929 C43.8723699,38.4295349 36.355982,46 27.0840477,46 C21.499215,46 16.3768691,43.232287 13.2618722,38.690723 C13.052081,38.3848542 13.128196,37.9656055 13.43188,37.7543049 C13.7355639,37.5430043 14.1518178,37.6196669 14.3616091,37.9255358 C17.2296193,42.1070013 21.9430095,44.6537468 27.0840477,44.6537468 C35.617778,44.6537468 42.5357332,37.6860198 42.5357332,29.0908929 C42.5357332,25.3606252 41.2291518,21.8351169 38.8865142,19.0458236 C38.6481356,18.7619948 38.6833366,18.3372719 38.9651379,18.0971783 C39.2469391,17.8570846 39.6686282,17.8925389 39.9070068,18.1763676 Z M3.31205808,28.8078191 L3.40870182,28.8937554 L5.04836467,30.5448733 C5.23957498,30.7374194 5.34698891,30.9977001 5.34722503,31.2690584 C5.34768659,31.799476 4.94674405,32.2365089 4.43123033,32.2928246 L4.31911399,32.2989602 L3.6859343,32.3004396 L3.68289303,34.5716266 C3.67950585,38.4913465 6.76654113,41.6816804 10.6272184,41.8096622 L10.874673,41.8136498 L12.2720274,41.8124339 C12.8399374,41.8119397 13.2999187,42.2751346 13.2994245,42.8470086 C13.2989657,43.3780345 12.9016255,43.8160432 12.3901644,43.8763022 L12.2702378,43.8833729 L10.8728834,43.8845889 C5.85296511,43.8889571 1.77002247,39.8678358 1.6300174,34.8481873 L1.62630917,34.5734162 L1.62844399,32.301704 L1.03693224,32.3018163 C0.810281554,32.3020135 0.591247527,32.2274274 0.412849927,32.0916513 L0.310951896,32.0029516 C-0.061275305,31.6333023 -0.0918372541,31.0497204 0.220630841,30.6449618 L0.305895114,30.5477249 L1.94841402,28.893751 C2.32531531,28.5194322 2.90945511,28.4925708 3.31205808,28.8078191 Z M39.2065802,25.5160784 C39.540861,26.6678308 39.7123689,27.8681831 39.7123689,29.0908929 C39.7123689,36.1155002 34.0584769,41.8100696 27.0840477,41.8100696 C24.8659384,41.8100696 22.7296865,41.2327667 20.8433713,40.1508196 C20.5226321,39.9668509 20.4106923,39.5558337 20.5933468,39.2327869 C20.7760014,38.9097402 21.1840826,38.796995 21.5048218,38.9809637 C23.1908875,39.9480523 25.0994212,40.4638163 27.0840477,40.4638163 C33.3202729,40.4638163 38.3757322,35.3719851 38.3757322,29.0908929 C38.3757322,27.9963552 38.2223948,26.9231752 37.9236362,25.893813 C37.8200727,25.5369889 38.0233148,25.1631671 38.37759,25.0588586 C38.7318652,24.9545501 39.1030168,25.1592543 39.2065802,25.5160784 Z M20.3240461,3.95131033 C29.2268784,3.95131033 36.4440499,11.2204064 36.4440499,20.1872908 C36.4440499,29.1541752 29.2268784,36.4232712 20.3240461,36.4232712 C11.4212139,36.4232712 4.20404234,29.1541752 4.20404234,20.1872908 C4.20404234,11.2204064 11.4212139,3.95131033 20.3240461,3.95131033 Z M25.7815304,10.236206 C23.7269274,10.9838395 22.6861088,12.2963061 22.6090852,14.247666 L22.6044654,14.4849006 L22.6044654,15.4568242 L22.0891588,15.4203771 C21.5659448,15.3891367 21.0229619,15.3735165 20.495794,15.3735165 C20.0272003,15.3735165 19.5586067,15.3858584 19.0900131,15.4105421 L18.3871226,15.4568242 L18.3871226,14.4849006 L18.3911272,14.2892788 C18.4471941,12.9479143 19.0946856,12.1235575 20.5036431,11.5432955 L20.720719,11.4580528 L20.2708691,10.236206 L20.0349481,10.3251175 C18.1105203,11.0858491 17.1445242,12.3713111 17.0703236,14.2473191 L17.0656885,14.4849006 L17.0656885,15.5679012 L16.5639091,15.6311873 C15.0717288,15.8358744 13.700249,16.1732707 12.5109583,16.6231325 C10.1773619,17.5117484 8.88404344,18.7891337 8.88404344,20.177596 C8.88404344,21.5660583 10.1773619,22.8434436 12.5109583,23.7320595 C13.6749449,24.1819213 15.0438944,24.5193176 16.5563178,24.7240047 L17.0656885,24.7872908 L17.0656885,25.8702914 L17.0616839,26.0659132 C17.005617,27.4072777 16.3581255,28.2316345 14.949168,28.8118965 L14.7320922,28.8971392 L15.181942,30.118986 L15.423753,30.0265541 C17.3203096,29.2653329 18.306519,27.9808315 18.3823812,26.107526 L18.3871226,25.8702914 L18.3871226,24.8983678 L18.9024292,24.9348149 C19.4256433,24.9660553 19.9686261,24.9816756 20.495794,24.9816756 C20.9643877,24.9816756 21.4329813,24.9693337 21.901575,24.9446499 L22.6044654,24.8983678 L22.6044654,25.8702914 L22.6004608,26.0659132 C22.5443939,27.4072777 21.8969024,28.2316345 20.4879449,28.8118965 L20.2708691,28.8971392 L20.720719,30.118986 L20.9624083,30.0265541 C22.8570453,29.2653329 23.8192214,27.9808315 23.8931641,26.107526 L23.8977839,25.8702914 L23.8977839,24.7872908 L24.3995633,24.7240047 C25.8917436,24.5193176 27.2632234,24.1819213 28.4525141,23.7320595 C30.7861105,22.8434436 32.079429,21.5938275 32.079429,20.177596 C32.079429,18.7613645 30.7861105,17.5117484 28.4525141,16.6231325 C27.2885275,16.1732707 25.919578,15.8358744 24.4071546,15.6311873 L23.8977839,15.5679012 L23.8977839,14.4849006 L23.9017885,14.2892788 C23.9578554,12.9479143 24.6053469,12.1235575 26.0143044,11.5432955 L26.2313802,11.4580528 L25.7815304,10.236206 Z M20.495794,16.678671 C21.0229619,16.678671 21.5659448,16.6942912 22.0891588,16.7255316 L22.6044654,16.7619788 L22.6044654,23.5932133 L22.0931126,23.6296604 C21.5764881,23.6609008 21.0440486,23.676521 20.495794,23.676521 C19.9686261,23.676521 19.4256433,23.6609008 18.9024292,23.6296604 L18.3871226,23.5932133 L18.3871226,16.7619788 L18.8984754,16.7255316 C19.4150999,16.6942912 19.9475394,16.678671 20.495794,16.678671 Z M17.0656885,16.8730557 L17.0656885,23.4821363 L16.5648911,23.412237 C15.243727,23.2123289 14.0385735,22.9051531 12.9889238,22.5102126 C11.2457554,21.8437508 10.2054775,20.9829041 10.2054775,20.177596 C10.2054775,19.3722879 11.2457554,18.5114413 12.9889238,17.8449794 C14.1416641,17.4006714 15.5474451,17.0674405 17.0656885,16.8730557 Z M23.8977839,16.8730557 C25.4160273,17.0674405 26.7936926,17.4006714 27.9745486,17.8449794 C29.717717,18.5114413 30.7579949,19.3722879 30.7579949,20.177596 C30.7579949,20.9829041 29.717717,21.8437508 27.9745486,22.5102126 C26.9498905,22.9051531 25.7252991,23.2123289 24.3995069,23.412237 L23.8977839,23.4821363 L23.8977839,16.8730557 Z M34.0939209,3 C39.1133029,3 43.1992868,7.02510416 43.3436142,12.0454109 L43.3475595,12.3202146 L43.347,13.342 L43.960402,13.3421157 C44.1867617,13.3421157 44.4054699,13.416701 44.5836357,13.5523168 L44.685407,13.6409015 C45.0886969,14.0413107 45.0910323,14.6928376 44.6906231,15.0961276 L44.6906231,15.0961276 L43.0495985,16.7489586 C43.0478661,16.7507035 43.0461273,16.7524422 43.0443824,16.7541747 C42.6410924,17.1545839 41.9895655,17.1522486 41.5891563,16.7489586 L41.5891563,16.7489586 L39.9481318,15.0961276 C39.7567488,14.9033677 39.649346,14.6427543 39.649346,14.3711226 C39.649346,13.8028178 40.1100481,13.3421157 40.6783529,13.3421157 L40.6783529,13.3421157 L41.291,13.342 L41.2911954,12.3202146 C41.2911954,8.40007876 38.201731,5.2067175 34.3413527,5.07536223 L34.0939209,5.0711588 L31.2440487,5.0711588 C30.6761994,5.0711588 30.2158667,4.60751411 30.2158667,4.0355794 C30.2158667,3.50449717 30.6127863,3.06678746 31.124141,3.0069671 L31.2440487,3 L34.0939209,3 Z" id="Combined-Shape" fill="#000000" fill-rule="nonzero"></path>
    </g>
</svg>