<?xml version="1.0" encoding="UTF-8"?>
<svg width="45px" height="49px" viewBox="0 0 45 49" version="1.1" xmlns="http://www.w3.org/2000/svg" xmlns:xlink="http://www.w3.org/1999/xlink">
    <title>logo2</title>
    <g id="logo2" stroke="none" stroke-width="1" fill="none" fill-rule="evenodd">
        <path d="M36.2059092,38.5813637 C31.7731817,43.0140909 25.739091,44.8636364 19.9659091,44.1402272 L31.4806817,32.6252273 C33.5654545,30.5406818 33.5654545,27.1606818 31.4806817,25.0761365 L26.3468182,19.9422728 C25.6672728,19.2627273 24.5652273,19.2627273 23.8854546,19.9422728 C23.2059091,20.6220455 23.2059091,21.724091 23.8854546,22.4038637 L28.4815908,27.0000001 C29.4893181,28.0079546 29.4893181,29.6418183 28.4815908,30.6497728 L15.9334092,43.1977274 C13.2570454,42.2595455 10.7443182,40.7206819 8.60477272,38.5813637 C0.982954552,30.9593181 0.982954552,18.6018182 8.60477272,10.9800001 C13.0377273,6.54727274 19.0715908,4.69772727 24.8449999,5.42113635 L13.33,16.9361364 C11.2454545,19.0206818 11.2454545,22.4004545 13.33,24.4852273 L18.4638636,29.6186363 C19.143409,30.2986364 20.2454545,30.2986364 20.9252272,29.6186363 C21.6049999,28.9390908 21.6049999,27.8372728 20.9252272,27.1572726 L16.3290908,22.5613637 C15.3213636,21.5534091 15.3213636,19.9195455 16.3290908,18.911591 L28.8772726,6.36340908 C31.5536364,7.30181818 34.0663637,8.84045463 36.2059092,10.9800001 C43.8277273,18.6018182 43.8277273,30.9593181 36.2059092,38.5813637 M38.2481818,8.9377273 C36.1347727,6.82409091 33.7020455,5.22590909 31.1070454,4.13363636 L34.240909,1 L27.4434091,2.95159091 C20.1713636,1.28045454 12.2277273,3.2725 6.56250001,8.9377273 C-2.1875,17.6875001 -2.1875,31.8736364 6.56250001,40.623409 C8.67613637,42.7370455 11.1086364,44.335 13.7034091,45.4277273 L10.5697727,48.5613635 L17.3670455,46.6095455 C24.6393182,48.2809091 32.5829545,46.2888636 38.2481818,40.623409 C46.9979545,31.8736364 46.9979545,17.6875001 38.2481818,8.9377273" id="Fill-1" fill="#000000" fill-rule="nonzero"></path>
    </g>
</svg>