<?xml version="1.0" encoding="UTF-8"?>
<svg width="45px" height="49px" viewBox="0 0 45 49" version="1.1" xmlns="http://www.w3.org/2000/svg" xmlns:xlink="http://www.w3.org/1999/xlink">
    <title>logo2</title>
    <g id="logo2" stroke="none" stroke-width="1" fill="none" fill-rule="evenodd">
        <path d="M23,3 C35.1502645,3 45,12.8497355 45,25 C45,37.1502645 35.1502645,47 23,47 C10.8497355,47 1,37.1502645 1,25 L1,24.6381579 C1,35.9490949 10.1693261,45.118421 21.4802631,45.118421 C32.7912002,45.118421 41.9605263,35.9490949 41.9605263,24.6381579 C41.9605263,13.3272209 32.7912002,4.15789474 21.4802631,4.15789474 C13.6813568,4.15789474 6.90059825,8.51710342 3.44165344,14.9318548 L3.27,15.255 L3.43944321,14.9213374 C7.09496764,7.84072278 14.4821781,3 23,3 Z M21.3685384,4.83333333 C28.196627,4.83333333 34.162373,8.66784461 37.378254,14.376554 C34.4391775,9.70056585 29.3563309,6.61025642 23.5785053,6.61025642 C14.4835811,6.61025642 7.11068836,14.2674787 7.11068836,23.7131411 C7.11068836,33.1588033 14.4835811,40.8160256 23.5785053,40.8160256 C31.2138264,40.8160256 37.6354863,35.4193325 39.5,28.0983699 C37.7217772,36.8026097 30.2795045,43.3333333 21.3685384,43.3333333 C11.1318273,43.3333333 2.83333333,34.7148148 2.83333333,24.0833334 C2.83333333,13.4518519 11.1318273,4.83333333 21.3685384,4.83333333 Z M28.8797666,14 L29.4512215,15.5452273 L29.3456296,15.5846098 C29.2850007,15.6072225 29.2255972,15.6301686 29.1674065,15.653464 L29.052639,15.7005255 C27.5438702,16.3343493 26.8917639,17.2241934 26.8607268,18.6731559 L26.8598536,18.7277547 L26.8595249,19.8654765 L26.9157189,19.8720409 C28.6292607,20.0756535 30.1952054,20.4316574 31.5370474,20.9208823 L31.6621861,20.9671368 L31.7823755,21.0127741 C31.8345874,21.0325675 31.8863312,21.0525251 31.9376049,21.0726451 L32.0900129,21.1334908 C32.1906748,21.1743772 32.2894471,21.2159067 32.3863124,21.2580655 L32.530178,21.3217741 C32.6013935,21.3538628 32.6715314,21.3863015 32.7405846,21.4190848 L32.8772423,21.4851088 C34.7926744,22.4269061 35.8333333,23.6421209 35.8333333,24.9997805 C35.8333333,26.4373024 34.666643,27.7151284 32.5300085,28.6778508 L32.3861315,28.7415638 C32.1923851,28.8258875 31.9910097,28.9076941 31.7821431,28.9868746 C30.4027812,29.5063089 28.809856,29.8863347 27.0849063,30.106218 L26.922808,30.1263622 L26.8595249,30.1337415 L26.8595561,31.215821 C26.8595561,33.4692951 25.7568654,35.0033834 23.5091594,35.8828663 L23.4406965,35.9093169 L23.195427,36 L22.6238097,34.4543337 L22.7294016,34.4149512 C24.4472218,33.7742581 25.1813275,32.8659277 25.2143044,31.3264051 L25.2151776,31.2718063 L25.2154734,30.2762515 L25.0791091,30.2864421 C24.5631906,30.3225162 24.0472683,30.3450627 23.5313439,30.3540813 L23.2733815,30.3574633 L23.0154188,30.3585905 C22.374397,30.3585905 21.7202435,30.3377342 21.1019071,30.2972821 L20.8971887,30.2830741 L20.8152456,30.2766559 L20.8153626,31.215821 C20.8153626,33.4597055 19.6935203,34.9993332 17.4347938,35.8826373 L17.3659995,35.9092034 L17.120394,36 L16.5487784,34.4543337 L16.6543703,34.4149512 C18.3721905,33.7742581 19.1062962,32.8659277 19.1392732,31.3264051 L19.1401464,31.2718063 L19.1404026,30.1340112 L19.084281,30.1275202 C17.3707393,29.9239075 15.8047945,29.5679036 14.4629526,29.0786787 L14.3378138,29.0324241 L14.1402101,28.9571774 L13.9874278,28.8971666 L13.8373875,28.8361111 C11.4835388,27.8612046 10.1666667,26.4987975 10.1666667,24.9997805 C10.1666667,23.7847878 11.0317897,22.6595413 12.6131035,21.7575947 L12.7377697,21.6877675 C12.9689723,21.560588 13.2147121,21.4380364 13.4745548,21.3205022 L13.6176833,21.2568925 C13.8103791,21.1727493 14.0104927,21.0912973 14.2178568,21.0126864 C15.5972187,20.4932521 17.190144,20.1132263 18.9150937,19.8933431 L19.077192,19.8731988 L19.1404026,19.8656113 L19.1404438,18.78374 C19.1404438,16.5251898 20.2482578,14.9938925 22.5197341,14.1164124 L22.588923,14.0900221 L22.6595343,14.0637712 L22.8355735,14 L23.407028,15.5452273 L23.3014361,15.5846098 C21.5836159,16.2253029 20.8495102,17.1336333 20.8165332,18.6731559 L20.81566,18.7277547 L20.8152456,19.7232362 L20.9517286,19.7131189 C21.467647,19.6770448 21.9835694,19.6544983 22.4994938,19.6454797 L22.7574562,19.6420977 L23.0154188,19.6409704 C23.6564407,19.6409704 24.3105942,19.6618268 24.9289306,19.7022788 L25.133649,19.7164869 L25.2154734,19.7228318 L25.2154752,18.78374 C25.2154752,16.5076711 26.3403096,14.9655522 28.6334654,14.0905731 L28.7033126,14.0642627 L28.8797666,14 Z M23.1955871,21.2928183 L23.0154188,21.2922681 C22.3618647,21.2922681 21.7289884,21.3124866 21.1171171,21.3528912 L20.9139384,21.367107 L20.8152456,21.3747065 L20.8152456,28.6247812 L20.8806507,28.6299332 C21.5041946,28.6765855 22.1737519,28.7027123 22.8352505,28.7067427 L23.0154188,28.7072929 C23.668973,28.7072929 24.3018492,28.6870743 24.9137207,28.6466697 L25.1168993,28.6324539 L25.2154734,28.6246463 L25.2154734,21.3747065 L25.150187,21.3696278 C24.526643,21.3229756 23.8570858,21.2968488 23.1955871,21.2928183 Z M19.1404026,21.5200478 L19.1209738,21.522724 C17.5137342,21.7371508 16.0353804,22.0927519 14.8217688,22.5584379 L14.7532836,22.5847257 L14.6184226,22.6378167 C14.5294573,22.6734354 14.4423821,22.7094977 14.3572338,22.7459688 L14.2309612,22.8009779 L14.1689173,22.8287042 L14.1689173,22.8287042 L14.0470316,22.8845844 C14.0068947,22.9033039 13.9672509,22.9221148 13.9281049,22.9410127 L13.8121649,22.9979632 L13.6992388,23.0554098 C13.5135557,23.1515531 13.3405457,23.2496549 13.1807817,23.3491726 L13.0865175,23.4090488 L13.0405861,23.4391062 L13.0405861,23.4391062 L12.9511419,23.4994433 C12.2339059,23.9933535 11.8415854,24.5147457 11.8415854,24.9997805 C11.8415854,25.4452206 12.172468,25.9213245 12.7819325,26.3786106 L12.8648407,26.4394663 C12.893024,26.4597114 12.921753,26.479915 12.9510231,26.5000728 L13.0404521,26.5604042 L13.0863754,26.5904585 L13.0863754,26.5904585 L13.1806227,26.6503283 C13.2604899,26.7000816 13.3436673,26.7494804 13.4300831,26.7984569 L13.535332,26.8570215 L13.6436621,26.9151546 L13.6436621,26.9151546 L13.755046,26.9728301 L13.8694561,27.030022 C13.9080941,27.0490024 13.9472319,27.0678979 13.9868649,27.086704 L14.1072448,27.1428503 C14.1275541,27.152162 14.1479862,27.1614502 14.1685403,27.1707144 L14.2933252,27.2260081 C14.3143653,27.2351744 14.3355263,27.2443156 14.3568077,27.2534313 L14.4859357,27.3078138 L14.6179246,27.3615562 C14.6401596,27.3704585 14.6625127,27.3793331 14.6849833,27.3881793 L14.8212119,27.4409128 C16.038892,27.8970354 17.4363707,28.240609 18.954638,28.4540309 L19.1404026,28.4793051 L19.1404026,21.5200478 Z M26.8595249,21.5201826 L26.8595249,28.4793051 L26.8790262,28.476837 C28.4375615,28.268908 29.8749041,27.9282311 31.0671773,27.4831541 L31.2467163,27.4148353 L31.3815773,27.3617443 L31.5136031,27.3079879 C31.5353696,27.2989745 31.5570168,27.2899345 31.5785441,27.2808683 L31.7062655,27.2261627 L31.8310827,27.1708568 C31.8722013,27.1523243 31.9128314,27.1336961 31.9529684,27.1149766 L32.071895,27.0585483 C32.3263439,26.9357118 32.5597626,26.8091985 32.7708923,26.6802007 L32.8667495,26.6204911 L32.9594139,26.5604548 C33.7334142,26.0488307 34.1584146,25.5046126 34.1584146,24.9997805 C34.1584146,24.504847 33.7499175,23.972057 33.0046665,23.4692865 L32.9136245,23.4091024 L32.8193772,23.3492327 L32.8193772,23.3492327 L32.7219523,23.2897032 C32.6889507,23.2699197 32.6554241,23.2501972 32.621377,23.2305401 L32.5176793,23.1717695 C32.4475127,23.1327257 32.3752827,23.0939608 32.3010259,23.0555098 L32.1881254,22.9980729 C32.1690569,22.9885407 32.1498629,22.9790293 32.1305438,22.9695391 L32.0131351,22.912857 L31.9533147,22.8847152 L31.9533147,22.8847152 L31.8314597,22.8288466 C31.8109056,22.8195823 31.7902293,22.810342 31.7694317,22.8011262 L31.6431922,22.7461297 C31.4942225,22.6823202 31.3393556,22.6197643 31.1787881,22.5586482 C29.9197228,22.0870234 28.4687764,21.7358439 26.8907826,21.5243078 L26.8595249,21.5201826 Z" id="Combined-Shape" fill="#000000" fill-rule="nonzero"></path>
    </g>
</svg>