<?xml version="1.0" encoding="UTF-8"?>
<svg width="26px" height="29px" viewBox="0 0 26 29" version="1.1" xmlns="http://www.w3.org/2000/svg" xmlns:xlink="http://www.w3.org/1999/xlink">
    <title>logo</title>
    <g id="logo" stroke="none" stroke-width="1" fill="none" fill-rule="evenodd">
        <path d="M23.0677213,10.8234695 C24.5392919,12.5851723 25.3606579,14.8135277 25.3606579,17.1691238 C25.3606579,22.5985668 21.0143723,27 15.6529573,27 C12.4235767,27 9.46162491,25.3908645 7.6604052,22.7504203 C7.53909524,22.5725896 7.58310811,22.3288404 7.75871069,22.2059912 C7.93431328,22.083142 8.17500845,22.1277133 8.29631841,22.305544 C9.95472024,24.7366286 12.6801969,26.2172946 15.6529573,26.2172946 C20.5875123,26.2172946 24.5877594,22.1662906 24.5877594,17.1691238 C24.5877594,15.0003635 23.8322401,12.9506493 22.4776304,11.3289672 C22.33979,11.1639505 22.3601447,10.9170185 22.5230938,10.7774292 C22.686043,10.6378399 22.929881,10.6584529 23.0677213,10.8234695 Z M1.88447714,16.987476 L1.96639505,17.0567736 L2.92050759,18.0226486 C3.03021109,18.1337045 3.09183572,18.283451 3.09207526,18.4395543 C3.09252874,18.7350724 2.87729663,18.9805634 2.59487598,19.0270737 L2.498451,19.0350032 L2.12407416,19.0354669 L2.12178104,20.3564692 C2.11832681,22.6351938 3.90230541,24.4887118 6.13484033,24.5616409 L6.27793884,24.5638647 L7.08601273,24.5626247 C7.41442849,24.5621208 7.68025352,24.8312229 7.67974956,25.1636812 C7.6792816,25.4723925 7.44933737,25.7271798 7.15354255,25.7624065 L7.08418773,25.7665628 L6.27611384,25.7678028 C3.37315314,25.7722574 1.01357013,23.4361423 0.934521968,20.5180306 L0.932482379,20.3582942 L0.934954909,19.0375654 L0.587293201,19.0379359 C0.461902018,19.0381283 0.340508215,18.9987021 0.239875185,18.9265259 L0.168554985,18.8663604 C-0.0390849963,18.6612414 -0.0639726963,18.3410218 0.0951294879,18.108333 L0.16341975,18.0255734 L1.120465,17.0567657 C1.12216887,17.0550409 1.12388328,17.0533265 1.12560813,17.0516227 C1.33325194,16.8465076 1.65375211,16.8255391 1.88447714,16.987476 Z M22.6627058,15.0907433 C22.8560007,15.7603667 22.9551737,16.458246 22.9551737,17.1691238 C22.9551737,21.2531978 19.6858601,24.5639939 15.6529573,24.5639939 C14.370355,24.5639939 13.135086,24.2283527 12.0443407,23.5993137 C11.8588761,23.4923552 11.7941479,23.2533917 11.8997663,23.0655738 C12.0053847,22.8777559 12.2413541,22.8122064 12.4268187,22.9191649 C13.4017714,23.4814258 14.5053644,23.7812886 15.6529573,23.7812886 C19.259,23.7812886 22.1822752,20.8209216 22.1822752,17.1691238 C22.1822752,16.5327647 22.0936092,15.9088228 21.9208546,15.3103564 C21.8609699,15.1029005 21.9784929,14.8855623 22.1833494,14.8249178 C22.388206,14.7642733 22.6028211,14.8832874 22.6627058,15.0907433 Z M11.7440455,2.5530874 C16.8920304,2.5530874 21.0652968,6.77930603 21.0652968,11.9926109 C21.0652968,17.2059158 16.8920304,21.4321344 11.7440455,21.4321344 C6.59606059,21.4321344 2.42279425,17.2059158 2.42279425,11.9926109 C2.42279425,6.77930603 6.59606059,2.5530874 11.7440455,2.5530874 Z M14.8997881,6.2070965 C13.7328529,6.63403969 13.1314718,7.37780183 13.0682533,8.47918535 L13.062678,8.67726778 L13.062678,9.24233966 L12.6634634,9.21543148 C12.3925032,9.20108044 12.1143174,9.19390492 11.8433572,9.19390492 C11.572397,9.19390492 11.3014369,9.20108044 11.0304767,9.21543148 L10.6240364,9.24233966 L10.6240364,8.67726778 L10.6288311,8.51507371 C10.6737301,7.77799706 11.0360335,7.31517892 11.802872,6.98601355 L11.9734181,6.91747257 L11.7132963,6.2070965 L11.51067,6.2857365 C10.4620206,6.72277856 9.92505114,7.44258909 9.8655068,8.47918535 L9.8599287,8.67726778 L9.8599287,9.3069193 L9.44699487,9.36123774 C8.63164963,9.48154791 7.88114523,9.67133298 7.22619576,9.92042589 C5.87681408,10.437063 5.12896397,11.1797289 5.12896397,11.9869744 C5.12896397,12.7942199 5.87681408,13.5368858 7.22619576,14.053523 C7.8805646,14.3078053 8.64695853,14.5002829 9.49270357,14.6201399 L9.8599287,14.6670295 L9.8599287,15.2966811 L9.85513398,15.4588751 C9.81023503,16.1959518 9.44793164,16.6587699 8.68109317,16.9879353 L8.51054702,17.0564763 L8.77066878,17.7668523 L8.97087825,17.6882123 C10.008154,17.2511703 10.5572999,16.5313598 10.6183162,15.4947635 L10.6240364,15.2966811 L10.6240364,14.7316092 L11.0232511,14.7585174 C11.2942113,14.7728684 11.572397,14.7800439 11.8433572,14.7800439 C12.1143174,14.7800439 12.3852776,14.7728684 12.6562378,14.7585174 L13.062678,14.7316092 L13.062678,15.2966811 L13.0578833,15.4588751 C13.0129844,16.1959518 12.650681,16.6587699 11.8838425,16.9879353 L11.7132963,17.0564763 L11.9734181,17.7668523 L12.1734826,17.6882123 C13.2092418,17.2511703 13.7454531,16.5313598 13.8049528,15.4947635 L13.8105281,15.2966811 L13.8105281,14.6670295 L14.223462,14.6127111 C15.0388072,14.4924009 15.7893116,14.3026159 16.4442611,14.053523 C17.7936428,13.5368858 18.5414929,12.8103648 18.5414929,11.9869744 C18.5414929,11.163584 17.7936428,10.437063 16.4442611,9.92042589 C15.7898922,9.66614355 15.0234983,9.47366594 14.1777533,9.35380891 L13.8105281,9.3069193 L13.8105281,8.67726778 L13.8153229,8.51507371 C13.8602218,7.77799706 14.2225252,7.31517892 14.9893637,6.98601355 L15.1599098,6.91747257 L14.8997881,6.2070965 Z M11.8433572,9.95271573 C12.1143174,9.95271573 12.3925032,9.95989124 12.6634634,9.97424226 L13.062678,10.0011504 L13.062678,13.9727984 L12.6670762,13.9997066 C12.3997288,14.0140576 12.1251558,14.0212331 11.8433572,14.0212331 C11.572397,14.0212331 11.2942113,14.0140576 11.0232511,13.9997066 L10.6240364,13.9727984 L10.6240364,10.0011504 L11.0196383,9.97424226 C11.2869857,9.95989124 11.5615586,9.95271573 11.8433572,9.95271573 Z M9.8599287,10.0657301 L9.8599287,13.9082188 L9.48875276,13.8548888 C8.75673369,13.7385324 8.08784913,13.5645628 7.50257516,13.3431469 C6.49460326,12.955669 5.89307169,12.4551768 5.89307169,11.9869744 C5.89307169,11.518772 6.49460326,11.0182798 7.50257516,10.630802 C8.16913718,10.3724834 8.98201773,10.1787445 9.8599287,10.0657301 Z M13.8105281,10.0657301 C14.6884391,10.1787445 15.485062,10.3724834 16.1678817,10.630802 C17.1758536,11.0182798 17.7773851,11.518772 17.7773851,11.9869744 C17.7773851,12.4551768 17.1758536,12.955669 16.1678817,13.3431469 C15.5965428,13.5645628 14.9177046,13.7385324 14.1825572,13.8548888 L13.8105281,13.9082188 L13.8105281,10.0657301 Z M19.7063552,2 C22.608769,2 24.9714535,4.34017684 25.0549095,7.25895983 L25.0571908,7.41872941 L25.057,8.012 L25.4181628,8.01285798 C25.5432689,8.01285798 25.6643451,8.05229098 25.7647437,8.12432273 L25.8359055,8.18435202 C26.0695458,8.41506497 26.0719189,8.79149767 25.841206,9.02513801 L25.841206,9.02513801 L24.8856968,9.99277115 C24.8839411,9.99454911 24.8821742,9.99631598 24.8803963,9.99807166 C24.6467559,10.2287846 24.2703232,10.2264115 24.0396103,9.99277115 L24.0396103,9.99277115 L23.0841011,9.02513801 C22.9742211,8.91386382 22.912607,8.76377799 22.912607,8.60739527 C22.912607,8.27904139 23.1787905,8.01285798 23.5071443,8.01285798 L23.5071443,8.01285798 L23.868,8.012 L23.8681163,7.41872941 C23.8681163,5.13958068 22.0816605,3.28297529 19.8494305,3.20660595 L19.7063552,3.20416209 L18.0584415,3.20416209 C17.7300877,3.20416209 17.4639043,2.93460122 17.4639043,2.60208105 C17.4639043,2.29331231 17.6934195,2.03882992 17.9891059,2.00405064 L18.0584415,2 L19.7063552,2 Z" id="Combined-Shape" fill="#000000" fill-rule="nonzero"></path>
    </g>
</svg>