<?xml version="1.0" encoding="UTF-8"?>
<svg width="100px" height="17px" viewBox="0 0 100 17" version="1.1" xmlns="http://www.w3.org/2000/svg" xmlns:xlink="http://www.w3.org/1999/xlink">
    <title>wordmark</title>
    <g id="wordmark" stroke="none" stroke-width="1" fill="none" fill-rule="evenodd">
        <path d="M5.66368515,14.8659218 L5.66368515,6.11731844 L12.6511628,14.8659218 L14.0153846,14.8659218 L14.0153846,3.13407821 L12.3516995,3.13407821 L12.3516995,11.8826816 L5.36422182,3.13407821 L4,3.13407821 L4,14.8659218 L5.66368515,14.8659218 Z M25.960644,14.8659218 L25.960644,13.4078212 L19.1728086,13.4078212 L19.1728086,9.62011173 L25.0123435,9.62011173 L25.0123435,8.19553073 L19.1728086,8.19553073 L19.1728086,4.59217877 L25.7277281,4.59217877 L25.7277281,3.13407821 L17.5091234,3.13407821 L17.5091234,14.8659218 L25.960644,14.8659218 Z M32.9481216,14.8659218 L36.1257603,5.4972067 L39.3033989,14.8659218 L41.0502683,14.8659218 L44.9432916,3.13407821 L43.3627907,3.13407821 L40.1518784,12.7206704 L36.940966,3.13407821 L35.4103757,3.13407821 L32.1329159,12.6703911 L28.988551,3.13407821 L27.2749553,3.13407821 L31.1679785,14.8659218 L32.9481216,14.8659218 Z M50.3669052,15 C53.4447227,15 54.8754919,13.4581006 54.8754919,11.6648045 C54.8754919,7.3575419 47.8214669,9.15083799 47.8214669,6.2849162 C47.8214669,5.26256983 48.6699463,4.42458101 50.6497317,4.42458101 C51.6812165,4.42458101 52.8291592,4.72625698 53.8440072,5.37988827 L54.3930233,4.03910615 C53.4280859,3.36871508 52.0139535,3 50.6497317,3 C47.588551,3 46.1910555,4.54189944 46.1910555,6.35195531 C46.1910555,10.7094972 53.2450805,8.89944134 53.2450805,11.7653631 C53.2450805,12.7877095 52.3799642,13.575419 50.3669052,13.575419 C48.8695886,13.575419 47.3889088,13.0055866 46.5237925,12.2178771 L45.908229,13.5251397 C46.8398927,14.396648 48.5867621,15 50.3669052,15 Z M61.7631485,14.8659218 L64.9407871,5.4972067 L68.1184258,14.8659218 L69.8652952,14.8659218 L73.7583184,3.13407821 L72.1778175,3.13407821 L68.9669052,12.7206704 L65.7559928,3.13407821 L64.2254025,3.13407821 L60.9479428,12.6703911 L57.8035778,3.13407821 L56.0899821,3.13407821 L59.9830054,14.8659218 L61.7631485,14.8659218 Z M75.372093,14.8659218 L76.6531306,11.9329609 L82.8420394,11.9329609 L84.1230769,14.8659218 L85.8699463,14.8659218 L80.5794275,3.13407821 L78.9323792,3.13407821 L73.6584973,14.8659218 L75.372093,14.8659218 Z M82.2597496,10.5921788 L77.2354204,10.5921788 L79.747585,4.84357542 L82.2597496,10.5921788 Z M89.263864,14.8659218 L89.263864,11.3128492 L92.1420394,11.3128492 C95.1699463,11.3128492 97,9.77094972 97,7.22346369 C97,4.67597765 95.1699463,3.13407821 92.1420394,3.13407821 L87.6001789,3.13407821 L87.6001789,14.8659218 L89.263864,14.8659218 Z M92.0921288,9.8547486 L89.263864,9.8547486 L89.263864,4.59217877 L92.0921288,4.59217877 C94.2216458,4.59217877 95.3363148,5.54748603 95.3363148,7.22346369 C95.3363148,8.89944134 94.2216458,9.8547486 92.0921288,9.8547486 Z" id="NEWSWAP" fill="#000000" fill-rule="nonzero"></path>
    </g>
</svg>